<?xml version="1.0" encoding="UTF-8"?>
<svg version="1.1" xmlns="http://www.w3.org/2000/svg" width="48" height="48">
<path d="M0 0 C0.60908203 0.32548828 1.21816406 0.65097656 1.84570312 0.98632812 C2.79993164 1.48036133 2.79993164 1.48036133 3.7734375 1.984375 C5.32314888 2.7883606 6.86638634 3.60480479 8.40820312 4.42382812 C8.40820312 5.74382813 8.40820312 7.06382813 8.40820312 8.42382812 C7.74820313 8.42382812 7.08820312 8.42382812 6.40820312 8.42382812 C6.40820312 14.36382813 6.40820312 20.30382813 6.40820312 26.42382812 C7.06820312 26.42382812 7.72820313 26.42382812 8.40820312 26.42382812 C8.40820312 27.08382812 8.40820312 27.74382813 8.40820312 28.42382812 C9.06820312 28.42382812 9.72820313 28.42382812 10.40820312 28.42382812 C10.40820312 29.08382812 10.40820312 29.74382813 10.40820312 30.42382812 C11.06820312 30.42382812 11.72820313 30.42382812 12.40820312 30.42382812 C12.40820312 31.08382812 12.40820312 31.74382813 12.40820312 32.42382812 C-2.77179687 32.42382812 -17.95179688 32.42382812 -33.59179688 32.42382812 C-33.59179688 31.76382813 -33.59179688 31.10382812 -33.59179688 30.42382812 C-32.93179688 30.42382812 -32.27179687 30.42382812 -31.59179688 30.42382812 C-31.59179688 29.76382813 -31.59179688 29.10382812 -31.59179688 28.42382812 C-30.93179687 28.42382812 -30.27179687 28.42382812 -29.59179688 28.42382812 C-29.59179688 27.76382813 -29.59179688 27.10382812 -29.59179688 26.42382812 C-28.93179687 26.42382812 -28.27179687 26.42382812 -27.59179688 26.42382812 C-27.59179688 20.48382812 -27.59179688 14.54382812 -27.59179688 8.42382812 C-28.25179688 8.42382812 -28.91179688 8.42382812 -29.59179688 8.42382812 C-29.59179688 7.10382812 -29.59179688 5.78382812 -29.59179688 4.42382812 C-26.91384859 3.04720004 -24.22712276 1.69796808 -21.52929688 0.36132812 C-20.77712891 -0.02861328 -20.02496094 -0.41855469 -19.25 -0.8203125 C-12.04294918 -4.34583953 -7.03732668 -3.61174967 0 0 Z M-23.59179688 8.42382812 C-23.59179688 14.36382813 -23.59179688 20.30382813 -23.59179688 26.42382812 C-22.93179687 26.42382812 -22.27179687 26.42382812 -21.59179688 26.42382812 C-21.59179688 20.48382812 -21.59179688 14.54382812 -21.59179688 8.42382812 C-22.25179688 8.42382812 -22.91179688 8.42382812 -23.59179688 8.42382812 Z M-17.59179688 8.42382812 C-17.59179688 14.36382813 -17.59179688 20.30382813 -17.59179688 26.42382812 C-16.93179687 26.42382812 -16.27179687 26.42382812 -15.59179688 26.42382812 C-15.59179688 20.48382812 -15.59179688 14.54382812 -15.59179688 8.42382812 C-16.25179688 8.42382812 -16.91179688 8.42382812 -17.59179688 8.42382812 Z M-11.59179688 8.42382812 C-11.59179688 14.36382813 -11.59179688 20.30382813 -11.59179688 26.42382812 C-10.93179687 26.42382812 -10.27179687 26.42382812 -9.59179688 26.42382812 C-9.59179688 20.48382812 -9.59179688 14.54382812 -9.59179688 8.42382812 C-10.25179688 8.42382812 -10.91179688 8.42382812 -11.59179688 8.42382812 Z M-5.59179688 8.42382812 C-5.59179688 14.36382813 -5.59179688 20.30382813 -5.59179688 26.42382812 C-4.93179687 26.42382812 -4.27179687 26.42382812 -3.59179688 26.42382812 C-3.59179688 20.48382812 -3.59179688 14.54382812 -3.59179688 8.42382812 C-4.25179688 8.42382812 -4.91179688 8.42382812 -5.59179688 8.42382812 Z M0.40820312 8.42382812 C0.40820312 14.36382813 0.40820312 20.30382813 0.40820312 26.42382812 C1.06820312 26.42382812 1.72820313 26.42382812 2.40820312 26.42382812 C2.40820312 20.48382812 2.40820312 14.54382812 2.40820312 8.42382812 C1.74820313 8.42382812 1.08820312 8.42382812 0.40820312 8.42382812 Z " fill="#FC9100" transform="translate(34.591796875,7.576171875)"/>
</svg>
